<?xml version="1.0" standalone="no"?>
<!DOCTYPE svg PUBLIC "-//W3C//DTD SVG 20010904//EN"
 "http://www.w3.org/TR/2001/REC-SVG-20010904/DTD/svg10.dtd">
<svg version="1.0" xmlns="http://www.w3.org/2000/svg"
 width="416.000000pt" height="416.000000pt" viewBox="0 0 416.000000 416.000000"
 preserveAspectRatio="xMidYMid meet">
<metadata>
Created by potrace 1.10, written by Peter Selinger 2001-2011
</metadata>
<g transform="translate(0.000000,416.000000) scale(0.100000,-0.100000)"
fill="#000000" stroke="none">
<path d="M1824 3865 c-123 -18 -323 -71 -403 -107 -332 -147 -506 -272 -715
-512 -103 -118 -219 -303 -279 -443 -24 -57 -75 -196 -82 -225 -58 -244 -58
-243 -59 -493 0 -211 2 -252 22 -340 20 -94 77 -287 90 -310 4 -5 7 -16 8 -23
1 -7 30 -66 63 -133 66 -129 131 -230 212 -331 55 -67 257 -268 270 -268 4 0
19 -11 34 -24 67 -62 289 -190 430 -247 330 -134 725 -161 1083 -73 519 127
947 470 1188 953 44 89 104 244 119 310 3 9 11 41 19 71 55 202 60 548 13 770
-79 367 -261 695 -520 939 -108 101 -141 128 -242 195 -244 163 -473 250 -760
291 -122 18 -368 17 -491 0z m581 -55 c154 -30 279 -72 424 -141 504 -240 852
-687 972 -1249 20 -91 23 -136 23 -330 1 -196 -2 -239 -22 -338 -75 -370 -244
-678 -514 -937 -138 -132 -263 -220 -433 -304 -218 -108 -421 -164 -659 -180
-313 -23 -613 37 -901 180 -491 242 -837 694 -946 1235 -27 138 -37 410 -19
551 28 223 114 479 222 663 285 484 748 792 1308 870 115 16 421 5 545 -20z"/>
<path d="M1850 3646 c-660 -104 -1164 -571 -1316 -1221 -27 -113 -28 -134 -28
-340 0 -190 3 -234 22 -322 121 -555 520 -1003 1050 -1178 46 -15 84 -25 86
-24 5 7 55 204 68 264 17 85 14 312 -6 410 -41 200 -76 301 -142 408 -35 56
-71 125 -79 153 -8 29 -22 55 -31 58 -9 3 -44 -2 -77 -11 -83 -23 -213 -21
-361 6 -115 20 -178 45 -228 89 -39 34 -12 272 50 447 22 61 45 142 52 180 21
116 45 149 177 248 34 26 71 47 84 47 32 0 125 -83 132 -118 12 -57 3 -65 -96
-89 -51 -13 -102 -23 -114 -23 -57 0 -75 -129 -48 -340 10 -74 17 -145 17
-157 1 -32 45 -30 117 4 50 23 67 26 150 24 74 -1 109 3 159 20 73 24 168 22
221 -6 28 -14 35 -13 96 9 98 36 108 48 100 122 -8 74 -26 130 -48 147 -22 16
-47 79 -47 117 0 23 4 30 20 30 17 0 18 3 10 26 -15 38 -12 119 5 161 17 42
94 102 159 123 47 15 112 8 164 -19 44 -22 108 -90 123 -128 9 -24 5 -90 -8
-137 -4 -15 -1 -18 11 -13 10 4 19 1 22 -8 9 -23 -17 -116 -38 -137 -25 -25
-33 -54 -42 -150 -9 -88 -8 -88 94 -128 54 -21 56 -21 128 -5 85 20 154 16
234 -16 43 -17 64 -19 127 -13 49 4 91 2 116 -6 63 -19 118 -28 131 -23 7 2
17 42 24 91 6 48 16 106 21 129 23 105 3 265 -37 288 -9 6 -43 27 -75 48 -32
21 -64 35 -70 31 -20 -12 -45 33 -41 74 3 33 10 42 61 75 32 20 63 37 70 37
15 0 103 -94 152 -164 34 -48 69 -129 69 -161 0 -8 18 -72 41 -142 54 -172 68
-242 71 -369 l3 -108 -58 -34 c-57 -34 -88 -43 -280 -82 -119 -24 -178 -25
-267 -4 -38 9 -75 14 -84 11 -8 -3 -20 -25 -26 -49 -5 -24 -33 -88 -60 -143
-82 -164 -127 -394 -117 -605 5 -100 11 -133 50 -255 25 -77 48 -155 52 -173
6 -30 10 -33 33 -27 15 3 71 26 125 50 398 177 715 529 851 947 60 183 71 257
71 493 0 183 -3 223 -23 313 -94 421 -323 762 -667 994 -173 116 -393 208
-590 244 -120 22 -403 27 -515 10z m445 -42 c50 -8 126 -24 170 -35 44 -11 88
-21 98 -22 9 -1 17 -5 17 -9 0 -4 6 -8 13 -8 18 0 170 -69 242 -109 386 -219
662 -603 752 -1048 26 -127 25 -463 -1 -583 -83 -385 -281 -705 -572 -925 -43
-33 -81 -62 -84 -65 -3 -3 -16 -11 -30 -18 -14 -7 -43 -23 -65 -37 -22 -14
-49 -29 -60 -34 -11 -5 -46 -21 -78 -35 -94 -42 -90 -46 -143 116 -40 126 -46
157 -51 258 -10 207 30 416 111 585 29 61 57 121 61 135 11 35 20 39 68 27 80
-19 224 -12 360 17 162 34 262 85 287 146 19 46 -6 276 -44 395 -1 6 -6 24
-11 40 -4 17 -10 35 -14 40 -3 6 -6 15 -8 20 -23 106 -66 233 -92 276 -35 59
-161 198 -179 200 -7 1 -18 2 -24 4 -7 1 -35 -10 -61 -24 -137 -72 -145 -187
-16 -242 27 -12 49 -25 49 -29 0 -4 13 -13 30 -20 46 -19 64 -78 56 -187 -13
-188 -30 -263 -60 -263 -7 0 -34 7 -60 16 -36 12 -68 15 -123 11 -59 -4 -89
-1 -137 14 -91 29 -170 34 -243 15 -59 -16 -64 -15 -115 5 -29 11 -56 26 -60
32 -8 12 -2 104 9 141 3 10 15 33 28 52 35 51 47 120 29 162 -8 19 -14 62 -14
97 0 54 -4 68 -32 106 -17 24 -41 52 -52 61 -12 10 -27 22 -34 28 -27 24 -127
51 -169 47 -58 -6 -139 -48 -189 -97 -47 -46 -64 -95 -64 -189 0 -33 -4 -63
-10 -66 -14 -8 -13 -57 2 -92 6 -15 12 -30 12 -33 1 -3 15 -28 33 -55 21 -34
34 -69 38 -107 7 -56 7 -57 -26 -77 -43 -26 -96 -34 -139 -21 -74 23 -152 23
-218 1 -48 -16 -83 -21 -155 -19 -78 1 -102 -2 -150 -22 -36 -15 -61 -20 -67
-14 -13 13 -40 211 -40 291 0 35 6 78 14 96 12 30 18 33 115 55 98 23 103 25
128 63 25 39 26 39 9 83 -19 50 -100 132 -140 142 -14 3 -36 4 -48 0 -50 -12
-216 -154 -244 -208 -8 -15 -22 -62 -30 -104 -9 -42 -34 -129 -56 -192 -42
-124 -68 -266 -68 -374 0 -61 3 -71 31 -102 51 -59 134 -91 301 -116 152 -23
165 -23 344 7 30 5 32 3 54 -56 12 -34 26 -64 30 -66 19 -11 99 -165 118 -225
37 -115 70 -282 77 -385 11 -171 -42 -445 -88 -453 -26 -5 -195 63 -290 116
-45 25 -115 70 -155 101 -41 31 -81 61 -89 66 -12 8 -124 120 -188 189 -6 6
-37 46 -68 89 -116 157 -207 360 -255 567 -24 105 -26 134 -26 330 -1 228 13
330 66 484 54 158 155 346 247 461 23 28 50 64 62 80 27 36 180 175 246 222
48 35 143 92 218 131 254 133 620 192 910 146z"/>
</g>
</svg>
